<?xml version="1.0" standalone="no"?><svg xmlns="http://www.w3.org/2000/svg" viewBox="0 0 1440 320"><path fill="#0099ff" fill-opacity="1" d="M0,224L26.7,186.7C53.3,149,107,75,160,64C213.3,53,267,107,320,122.7C373.3,139,427,117,480,144C533.3,171,587,245,640,261.3C693.3,277,747,235,800,181.3C853.3,128,907,64,960,48C1013.3,32,1067,64,1120,112C1173.3,160,1227,224,1280,261.3C1333.3,299,1387,309,1413,314.7L1440,320L1440,320L1413.3,320C1386.7,320,1333,320,1280,320C1226.7,320,1173,320,1120,320C1066.7,320,1013,320,960,320C906.7,320,853,320,800,320C746.7,320,693,320,640,320C586.7,320,533,320,480,320C426.7,320,373,320,320,320C266.7,320,213,320,160,320C106.7,320,53,320,27,320L0,320Z"></path></svg>