<?xml version="1.0" standalone="no"?><svg xmlns="http://www.w3.org/2000/svg" viewBox="0 0 1440 320"><path fill="#0099ff" fill-opacity="1" d="M0,96L26.7,80C53.3,64,107,32,160,21.3C213.3,11,267,21,320,69.3C373.3,117,427,203,480,218.7C533.3,235,587,181,640,154.7C693.3,128,747,128,800,117.3C853.3,107,907,85,960,80C1013.3,75,1067,85,1120,74.7C1173.3,64,1227,32,1280,32C1333.3,32,1387,64,1413,80L1440,96L1440,320L1413.3,320C1386.7,320,1333,320,1280,320C1226.7,320,1173,320,1120,320C1066.7,320,1013,320,960,320C906.7,320,853,320,800,320C746.7,320,693,320,640,320C586.7,320,533,320,480,320C426.7,320,373,320,320,320C266.7,320,213,320,160,320C106.7,320,53,320,27,320L0,320Z"></path></svg>