<?xml version="1.0" standalone="no"?><svg xmlns="http://www.w3.org/2000/svg" viewBox="0 0 1440 320"><path fill="#0099ff" fill-opacity="1" d="M0,96L26.7,106.7C53.3,117,107,139,160,149.3C213.3,160,267,160,320,138.7C373.3,117,427,75,480,58.7C533.3,43,587,53,640,48C693.3,43,747,21,800,10.7C853.3,0,907,0,960,26.7C1013.3,53,1067,107,1120,133.3C1173.3,160,1227,160,1280,154.7C1333.3,149,1387,139,1413,133.3L1440,128L1440,320L1413.3,320C1386.7,320,1333,320,1280,320C1226.7,320,1173,320,1120,320C1066.7,320,1013,320,960,320C906.7,320,853,320,800,320C746.7,320,693,320,640,320C586.7,320,533,320,480,320C426.7,320,373,320,320,320C266.7,320,213,320,160,320C106.7,320,53,320,27,320L0,320Z"></path></svg>